<svg width="32" height="32" viewBox="0 0 32 32" fill="none" xmlns="http://www.w3.org/2000/svg">
<path d="M19.8075 22.3731L20.1551 22.0137L19.8075 22.3731ZM20.9072 23.5936L20.4329 23.752L20.9072 23.5936ZM20.4202 24.7977L20.1894 24.3541L20.4202 24.7977ZM20.9072 8.17406L20.4329 8.0156L20.9072 8.17406ZM20.4202 6.96999L20.6509 6.52641L20.4202 6.96999ZM17.5554 15.8838C17.5554 13.4776 18.5514 11.3049 20.1551 9.75399L19.4599 9.03517C17.6695 10.7667 16.5554 13.1956 16.5554 15.8838H17.5554ZM20.1551 22.0137C18.5514 20.4628 17.5554 18.29 17.5554 15.8838H16.5554C16.5554 18.5721 17.6695 21.001 19.4599 22.7325L20.1551 22.0137ZM19.3123 24.4105C14.6032 24.4105 10.7856 20.593 10.7856 15.8838H9.78564C9.78564 21.1453 14.0509 25.4105 19.3123 25.4105V24.4105ZM10.7856 15.8838C10.7856 11.1747 14.6032 7.35715 19.3123 7.35715V6.35715C14.0509 6.35715 9.78564 10.6224 9.78564 15.8838H10.7856ZM19.4599 22.7325C19.8049 23.0662 20.0488 23.3023 20.2175 23.4839C20.3011 23.5738 20.357 23.6406 20.3936 23.6911C20.4315 23.7434 20.4359 23.7609 20.4329 23.752L21.3814 23.4351C21.3045 23.2049 21.1273 22.9938 20.9501 22.8031C20.7587 22.5972 20.4915 22.339 20.1551 22.0137L19.4599 22.7325ZM19.3123 25.4105C19.6011 25.4105 19.8474 25.4109 20.0477 25.3948C20.2523 25.3784 20.457 25.3421 20.6509 25.2412L20.1894 24.3541C20.1664 24.3661 20.1142 24.3862 19.9676 24.398C19.8167 24.4101 19.6175 24.4105 19.3123 24.4105V25.4105ZM20.4329 23.752C20.5108 23.9852 20.4075 24.2407 20.1894 24.3541L20.6509 25.2412C21.3053 24.9008 21.6152 24.1348 21.3814 23.4351L20.4329 23.752ZM20.1551 9.75399C20.4915 9.42863 20.7587 9.17042 20.9501 8.9645C21.1273 8.77383 21.3045 8.56273 21.3814 8.33251L20.4329 8.0156C20.4359 8.0067 20.4315 8.02422 20.3936 8.07651C20.357 8.12704 20.3011 8.19388 20.2175 8.28377C20.0488 8.46537 19.8049 8.70147 19.4599 9.03517L20.1551 9.75399ZM19.3123 7.35715C19.6175 7.35715 19.8167 7.35752 19.9676 7.36965C20.1142 7.38142 20.1664 7.40159 20.1894 7.41357L20.6509 6.52641C20.457 6.42554 20.2523 6.38929 20.0477 6.37286C19.8474 6.35677 19.6011 6.35715 19.3123 6.35715V7.35715ZM21.3814 8.33251C21.6152 7.63287 21.3053 6.86681 20.6509 6.52641L20.1894 7.41357C20.4075 7.527 20.5108 7.78246 20.4329 8.0156L21.3814 8.33251Z" fill="white"/>
</svg>
